<?xml version="1.0" encoding="iso-8859-1"?>
<!-- Generator: Adobe Illustrator 24.1.2, SVG Export Plug-In . SVG Version: 6.00 Build 0)  -->
<svg version="1.1" baseProfile="basic" id="&#x421;&#x43B;&#x43E;&#x439;_1"
	 xmlns="http://www.w3.org/2000/svg" xmlns:xlink="http://www.w3.org/1999/xlink" x="0px" y="0px" viewBox="0 0 64 64"
	 xml:space="preserve">
<path marker-start="none" marker-end="none" style="fill:none;stroke:#000000;stroke-width:2;stroke-linecap:round;stroke-linejoin:round;stroke-miterlimit:79.8403;" d="
	M53.279,26.425l-0.181-0.849l-7.136-1.248l4.155-5.631l-0.477-0.552l-6.111,2.945l0.773-7.803l-0.625-0.365l-3.716,6.328l-4.16-9.42
	h-0.733l0.993,9.087l-10.489-8.425l-0.883,0.257l8.06,10.193l-15.969-5.336l-0.737,0.812l14.277,8.168l-19.687,1.655l-0.22,1.215
	l20.457,2.241L13.797,43.905l0.737,0.991l20.312-11.112l-4.011,19.577h1.216l7.797-18.435l4.751,14.421l0.843-0.663l-1.947-14.641
	l7.392,8.425l0.479-0.776l-5.664-10.448l7.909,2.944l0.075-0.883l-7.101-5.264L53.279,26.425z"/>
<path marker-start="none" marker-end="none" style="fill:none;stroke:#000000;stroke-width:2;stroke-linecap:round;stroke-linejoin:round;stroke-miterlimit:79.8403;" d="
	M31.999,3.998c15.456,0,28.001,12.545,28.001,28.002S47.455,60.001,31.999,60.001S3.998,47.455,3.998,31.999
	S16.543,3.998,31.999,3.998z"/>
<path style="fill:none;stroke:#000000;stroke-width:2;stroke-linecap:round;stroke-linejoin:round;stroke-miterlimit:79.8403;" d="
	M25.925,53.154l-0.531,1.928"/>
<path style="fill:none;stroke:#000000;stroke-width:2;stroke-linecap:round;stroke-linejoin:round;stroke-miterlimit:79.8403;" d="
	M21.375,51.271l-0.947,1.763"/>
<path style="fill:none;stroke:#000000;stroke-width:2;stroke-linecap:round;stroke-linejoin:round;stroke-miterlimit:79.8403;" d="
	M17.367,48.423l-1.323,1.499"/>
<path style="fill:none;stroke:#000000;stroke-width:2;stroke-linecap:round;stroke-linejoin:round;stroke-miterlimit:79.8403;" d="
	M10.598,40.061l1.688-1.404"/>
<path style="fill:none;stroke:#000000;stroke-width:2;stroke-linecap:round;stroke-linejoin:round;stroke-miterlimit:79.8403;" d="
	M14.974,36.421l3.647-3.036l-8.753-0.96"/>
</svg>